<svg width="84" height="13" viewBox="0 0 84 13" fill="none" xmlns="http://www.w3.org/2000/svg">
<path d="M3.63068 12H6.02841L8.23864 4.39205H8.32955L10.5455 12H12.9432L16.2727 0.363636H13.5852L11.6591 8.46591H11.5568L9.4375 0.363636H7.13636L5.01136 8.44886H4.91477L2.98864 0.363636H0.301136L3.63068 12ZM27.6264 6.18182C27.6264 2.375 25.2628 0.204545 22.1776 0.204545C19.0753 0.204545 16.7287 2.375 16.7287 6.18182C16.7287 9.97159 19.0753 12.1591 22.1776 12.1591C25.2628 12.1591 27.6264 9.98864 27.6264 6.18182ZM25.1321 6.18182C25.1321 8.64773 23.9616 9.98295 22.1776 9.98295C20.3878 9.98295 19.223 8.64773 19.223 6.18182C19.223 3.71591 20.3878 2.38068 22.1776 2.38068C23.9616 2.38068 25.1321 3.71591 25.1321 6.18182ZM29.4489 12H31.9091V7.875H33.7045L35.9091 12H38.625L36.1534 7.47727C37.4773 6.90909 38.2102 5.75568 38.2102 4.16477C38.2102 1.85227 36.6818 0.363636 34.0398 0.363636H29.4489V12ZM31.9091 5.89773V2.375H33.5682C34.9886 2.375 35.6761 3.00568 35.6761 4.16477C35.6761 5.31818 34.9886 5.89773 33.5795 5.89773H31.9091ZM39.9489 12H42.4091V8.69318L43.6193 7.21591L46.8068 12H49.75L45.3807 5.57386L49.6989 0.363636H46.75L42.5625 5.49432H42.4091V0.363636H39.9489V12ZM61.017 6.18182C61.017 2.375 58.6534 0.204545 55.5682 0.204545C52.4659 0.204545 50.1193 2.375 50.1193 6.18182C50.1193 9.97159 52.4659 12.1591 55.5682 12.1591C58.6534 12.1591 61.017 9.98864 61.017 6.18182ZM58.5227 6.18182C58.5227 8.64773 57.3523 9.98295 55.5682 9.98295C53.7784 9.98295 52.6136 8.64773 52.6136 6.18182C52.6136 3.71591 53.7784 2.38068 55.5682 2.38068C57.3523 2.38068 58.5227 3.71591 58.5227 6.18182ZM70.027 0.363636V7.71023C70.027 9.03977 69.0952 10 67.6634 10C66.2372 10 65.2997 9.03977 65.2997 7.71023V0.363636H62.8395V7.92045C62.8395 10.4659 64.7599 12.1648 67.6634 12.1648C70.5554 12.1648 72.4872 10.4659 72.4872 7.92045V0.363636H70.027ZM74.0682 2.39205H77.6307V12H80.0625V2.39205H83.625V0.363636H74.0682V2.39205Z" fill="#FAFAF9"/>
</svg>
